<svg width="26" height="23" viewBox="0 0 26 23" fill="none" xmlns="http://www.w3.org/2000/svg">
<path d="M12.8079 13.18C13.8686 13.18 14.7284 12.3373 14.7284 11.2979C14.7284 10.2584 13.8686 9.41577 12.8079 9.41577C11.7473 9.41577 10.8875 10.2584 10.8875 11.2979C10.8875 12.3373 11.7473 13.18 12.8079 13.18Z" fill="white"/>
<path d="M17.0201 18.9769L15.3686 17.2955L15.279 17.2077L14.2139 16.1639C13.8616 15.8187 13.3651 15.6785 12.872 15.6895C12.2782 15.6978 11.6886 15.5903 11.1375 15.3734C10.5865 15.1564 10.0849 14.8342 9.66199 14.4256C9.23908 14.017 8.90328 13.53 8.67409 12.9931C8.44491 12.4562 8.32691 11.8799 8.32698 11.2979C8.33812 10.8163 8.19794 10.3308 7.85387 9.99356L5.84321 8.02304C4.72043 6.95088 2.93732 6.92294 1.95177 8.12246C1.2929 8.92437 0.697529 9.77615 0.171526 10.6705C0.0591575 10.8613 0 11.0776 0 11.2979C0 11.5181 0.0591575 11.7345 0.171526 11.9253C0.978109 13.2929 5.29269 20.081 12.8336 20.081H13.1537C14.4458 20.0435 15.7227 19.8039 16.9363 19.372C17.1027 19.3128 17.1463 19.1005 17.0201 18.9769Z" fill="white"/>
<path d="M8.44213 3.46847L11.4661 6.43205C11.8183 6.77725 12.3149 6.9174 12.8079 6.90644C13.9964 6.90644 15.1361 7.36912 15.9765 8.1927C16.8168 9.01628 17.2889 10.1333 17.2889 11.298C17.2778 11.7796 17.418 12.2651 17.762 12.6023L20.6433 15.4261C21.247 16.0177 22.2128 16.0401 22.7938 15.4262C23.8042 14.3588 24.6933 13.185 25.4444 11.9254C25.5568 11.7346 25.6159 11.5183 25.6159 11.298C25.6159 11.0778 25.5568 10.8614 25.4444 10.6706C24.625 9.27789 20.1184 2.28902 12.4622 2.51487C11.0982 2.55453 9.75109 2.81934 8.47756 3.29781C8.4067 3.32443 8.38807 3.41549 8.44213 3.46847Z" fill="white"/>
<path d="M23.9593 20.4447L22.2949 18.8261L19.7343 16.3167L7.54595 4.35906L5.66392 2.5146L3.47463 0.369007C3.35525 0.252017 3.21354 0.159216 3.05757 0.0959018C2.9016 0.0325875 2.73444 0 2.56562 0C2.3968 0 2.22964 0.0325875 2.07367 0.0959018C1.9177 0.159216 1.77599 0.252017 1.65661 0.369007C1.41553 0.605278 1.28009 0.92573 1.28009 1.25987C1.28009 1.59401 1.41553 1.91446 1.65661 2.15073L4.52446 5.02407L6.76497 7.15712L16.1239 16.3167L16.2135 16.4045L17.9291 18.0858L18.6845 18.8261L22.1413 22.2265C22.2603 22.3441 22.4019 22.4374 22.5579 22.5011C22.7139 22.5648 22.8812 22.5976 23.0503 22.5976C23.2193 22.5976 23.3866 22.5648 23.5426 22.5011C23.6986 22.4374 23.8402 22.3441 23.9593 22.2265C24.0793 22.1098 24.1745 21.971 24.2395 21.8181C24.3045 21.6652 24.338 21.5012 24.338 21.3356C24.338 21.17 24.3045 21.006 24.2395 20.8531C24.1745 20.7002 24.0793 20.5614 23.9593 20.4447Z" fill="white"/>
</svg>
