<?xml version="1.0" encoding="UTF-8" standalone="no"?>
<svg
   width="25.615234"
   height="17.619701"
   viewBox="0 0 25.615234 17.619701"
   fill="none"
   version="1.1"
   id="svg1"
   xmlns="http://www.w3.org/2000/svg"
   xmlns:svg="http://www.w3.org/2000/svg">
  <defs
     id="defs1" />
  <path
     d="m 5.84277,5.5126732 2.56055,2.50977 c -0.04519,0.25284 -0.07121,0.509 -0.07715,0.76562 -2e-5,0.58192 0.11852,1.15848 0.34766,1.6953298 0.22909,0.5366 0.56472,1.0232 0.9873,1.4316 0.42277,0.4086 0.92467,0.7313 1.47557,0.9483 0.5511,0.2169 1.1416,0.3247 1.7354,0.3164 0.2616,-0.0059 0.5225,-0.031 0.7802,-0.0752 l 1.626,1.5928 0.0899,0.0878 1.6513,1.6817 0.2696,0.2637 c -1.3178,0.5149 -2.7178,0.7996 -4.1358,0.8408 H 12.833 C 5.29224,17.571093 0.977473,10.782693 0.170898,9.4150232 0.0586541,9.2244132 5.76583e-5,9.0081332 0,8.7880632 0,8.5678132 0.0585295,8.3508832 0.170898,8.1601332 1.16236,6.4743432 2.40069,4.9398032 3.8457,3.6054532 Z M 12.4619,0.00486432 c 7.6557,-0.22581609 12.1627,6.76200888 12.9824,8.15526888 0.1124,0.19075 0.1709,0.40768 0.1709,0.62793 0,0.22008 -0.0587,0.43633 -0.1709,0.62696 -1.007,1.6889698 -2.2625,3.2238698 -3.7255,4.5546698 l -1.0762,-1.0537 -3.4307,-3.3622998 c 0.0452,-0.25284 0.0702,-0.509 0.0762,-0.76563 0,-1.16462 -0.4713,-2.2819 -1.3115,-3.10546 -0.8404,-0.82357 -1.9806,-1.28612 -3.169,-1.28614 -0.2619,0.00582 -0.5232,0.0309 -0.7812,0.0752 L 8.44141,0.95798923 8.32617,0.84568423 C 9.6439,0.33076623 11.0439,0.04608693 12.4619,0.00486432 Z m 0.3457,6.90136888 c 1.0606,2e-5 1.9199,0.84239 1.9199,1.88183 -10e-5,1.03935 -0.8593,1.8818298 -1.9199,1.8818298 -1.0605,0 -1.9208,-0.8424698 -1.9209,-1.8818298 0,-1.03945 0.8603,-1.88183 1.9209,-1.88183 z"
     fill="#ffffff"
     id="path1"
     style="display:none" />
  <path
     id="path2"
     style="display:inline;opacity:1;fill:#ffffff;fill-opacity:1"
     d="M 12.460938,0.00535261 C 5.8265928,0.35312468 2.1260236,4.9040283 0.16992188,8.1596494 0.05590221,8.349417 0,8.5683057 0,8.7885557 5.76583e-5,9.0086257 0.06684771,9.2447777 0.16992188,9.4155088 3.6120684,15.11705 8.8705202,17.888996 13.527344,17.599102 c 5.121213,-0.318803 9.30271,-3.764727 11.916015,-8.1835932 0.127547,-0.2156714 0.171875,-0.4068731 0.171875,-0.6269531 0,-0.22025 -0.05948,-0.4381562 -0.171875,-0.6289063 -0.8197,-1.3932599 -5.326722,-8.38011288 -12.982421,-8.15429679 z m 0.347656,4.39257809 c 2.474121,4.67e-5 4.478515,1.9658656 4.478515,4.390625 -2.34e-4,2.4245483 -2.004394,4.3886713 -4.478515,4.3886713 -2.473887,0 -4.4802358,-1.964098 -4.480469,-4.3886713 0,-2.4247827 2.006349,-4.390625 4.480469,-4.390625 z m -0.002,2.5078125 c -1.0606,0 -1.919922,0.8433625 -1.919922,1.8828125 10e-5,1.03936 0.859422,1.8808593 1.919922,1.8808593 1.0606,0 1.919822,-0.8415093 1.919921,-1.8808593 0,-1.03944 -0.859321,-1.8827925 -1.919921,-1.8828125 z" />
</svg>
