<?xml version="1.0" encoding="UTF-8" standalone="no"?>
<svg
   width="26"
   height="30"
   viewBox="0 0 26 30"
   fill="none"
   version="1.1"
   id="svg1"
   xmlns="http://www.w3.org/2000/svg"
   xmlns:svg="http://www.w3.org/2000/svg">
  <defs
     id="defs1" />
  <path
     d="M 21.125,8.88386 H 19.5 V 6.03318 C 19.5,4.43308 18.8152,2.89852 17.5962,1.76708 16.3772,0.635637 14.7239,0 13,0 11.2761,0 9.62279,0.635637 8.40381,1.76708 7.18482,2.89852 6.5,4.43308 6.5,6.03318 V 8.88386 H 4.875 c -1.29293,0 -2.53291,0.47673 -3.44715,1.32534 C 0.513615,11.0578 0,12.2087 0,13.4087 v 12.0664 c 0,1.2001 0.513615,2.351 1.42785,3.1996 C 2.34209,29.5233 3.58207,30 4.875,30 h 16.25 c 1.2929,0 2.5329,-0.4767 3.4471,-1.3253 C 25.4864,27.8261 26,26.6752 26,25.4751 V 13.4087 c 0,-1.2 -0.5136,-2.3509 -1.4279,-3.1995 C 23.6579,9.36059 22.4179,8.88386 21.125,8.88386 Z M 9.75,6.03318 C 9.72814,5.21161 10.0579,4.41546 10.667,3.819 11.2761,3.22254 12.115,2.87437 13,2.85068 c 0.885,0.02369 1.7239,0.37186 2.333,0.96832 0.6091,0.59646 0.9389,1.39261 0.917,2.21418 V 8.88386 H 9.75 Z M 13,23.9668 c -0.9642,0 -1.9067,-0.2654 -2.7084,-0.7626 C 9.48991,22.707 8.86506,22.0003 8.49609,21.1735 8.12711,20.3467 8.03057,19.4369 8.21867,18.5592 c 0.1881,-0.8778 0.6524,-1.684 1.33418,-2.3168 0.68175,-0.6329 1.55045,-1.0638 2.49605,-1.2384 0.9457,-0.1746 1.9259,-0.085 2.8167,0.2575 0.8908,0.3425 1.6521,0.9224 2.1878,1.6665 0.5357,0.7442 0.8216,1.619 0.8216,2.5139 0,1.2001 -0.5136,2.351 -1.4279,3.1996 -0.9142,0.8486 -2.1542,1.3253 -3.4471,1.3253 z"
     fill="#ffffff"
     id="path1" />
</svg>
